<svg width="1246" height="300" viewBox="0 0 1246 300" fill="none" xmlns="http://www.w3.org/2000/svg">
<rect width="300" height="300" rx="50" fill="#9F2228"/>
<path d="M198.274 173.896C190.124 192.745 171.035 204.923 149.645 204.923C127.797 204.923 108.596 192.683 100.727 173.739C99.3781 170.496 100.916 166.771 104.163 165.42C104.96 165.089 105.788 164.932 106.602 164.932C109.096 164.937 111.463 166.411 112.479 168.86C118.369 183.039 132.957 192.2 149.645 192.2C165.953 192.2 180.456 183.035 186.594 168.844C187.99 165.62 191.736 164.133 194.959 165.531C198.183 166.924 199.668 170.668 198.274 173.896ZM259.486 79.1797V221.783C259.486 243.105 242.138 260.446 220.822 260.446H78.2151C56.8951 260.446 39.5499 243.101 39.5499 221.783V79.1797C39.5499 57.8576 56.8951 40.5145 78.2151 40.5145H220.818C242.14 40.5123 259.486 57.8576 259.486 79.1797ZM57.7456 79.1797V98.0923L88.2472 112.167C91.6514 100.584 102.36 92.1006 115.027 92.1006C128.348 92.1006 139.505 101.484 142.275 113.98H156.436C159.179 101.441 170.356 92.02 183.703 92.02C196.315 92.02 206.99 100.43 210.442 111.934L241.286 97.0679V79.1776C241.286 67.8898 232.102 58.706 220.816 58.706H78.2151C66.9294 58.706 57.7456 67.8919 57.7456 79.1797ZM241.29 221.783V104.814L211.588 119.081C211.596 119.372 211.632 119.656 211.632 119.947C211.632 135.349 199.102 147.876 183.703 147.876C168.649 147.876 156.371 135.892 155.83 120.965H142.905C142.404 135.928 130.107 147.954 115.027 147.954C99.6305 147.954 87.1019 135.428 87.1019 120.025C87.1019 119.79 87.1316 119.561 87.138 119.325L57.7478 105.779V221.783C57.7478 233.069 66.9315 242.252 78.2172 242.252H220.822C232.106 242.254 241.29 233.069 241.29 221.783Z" fill="white"/>
<path d="M411.714 225C404.163 225 397.361 223.127 391.306 219.38C385.184 215.634 380.252 210.593 376.51 204.257C372.837 197.922 371 190.838 371 183.004V116.689C371 109.06 372.871 102.112 376.612 95.8447C380.286 89.5095 385.218 84.4687 391.408 80.7221C397.599 76.9074 404.367 75 411.714 75C419.402 75 426.34 76.8392 432.531 80.5177C438.721 84.2643 443.619 89.2711 447.225 95.5381C450.898 101.805 452.735 108.856 452.735 116.689V126.294C452.735 126.839 452.395 127.112 451.715 127.112H428.245C427.701 127.112 427.429 126.839 427.429 126.294V118.324C427.429 113.011 425.932 108.617 422.939 105.143C419.946 101.669 416.204 99.9319 411.714 99.9319C407.701 99.9319 404.129 101.601 401 104.939C397.871 108.277 396.306 112.193 396.306 116.689V183.004C396.306 187.568 397.837 191.519 400.898 194.857C403.959 198.127 407.565 199.762 411.714 199.762C416.204 199.762 419.946 198.161 422.939 194.959C425.932 191.689 427.429 187.704 427.429 183.004V172.684H412.837C412.089 172.684 411.714 172.343 411.714 171.662V148.263C411.714 147.582 412.089 147.241 412.837 147.241H451.919C452.463 147.241 452.735 147.582 452.735 148.263V183.004C452.735 190.838 450.898 197.922 447.225 204.257C443.483 210.593 438.551 215.634 432.429 219.38C426.306 223.127 419.402 225 411.714 225Z" fill="#332E2E"/>
<path d="M542.168 222.956H474.617C474.072 222.956 473.8 222.616 473.8 221.935L474.004 78.1676C474.004 77.6226 474.277 77.3501 474.821 77.3501H541.964C542.508 77.3501 542.78 77.6907 542.78 78.3719V101.771C542.78 102.316 542.508 102.589 541.964 102.589H499.107V135.286H541.964C542.508 135.286 542.78 135.559 542.78 136.104L542.984 159.809C542.984 160.354 542.712 160.627 542.168 160.627H499.107V197.207H542.168C542.712 197.207 542.984 197.548 542.984 198.229V222.139C542.984 222.684 542.712 222.956 542.168 222.956Z" fill="#332E2E"/>
<path d="M636.193 222.956H568.642C568.097 222.956 567.825 222.616 567.825 221.935L568.029 78.1676C568.029 77.6226 568.301 77.3501 568.846 77.3501H635.989C636.533 77.3501 636.805 77.6907 636.805 78.3719V101.771C636.805 102.316 636.533 102.589 635.989 102.589H593.131V135.286H635.989C636.533 135.286 636.805 135.559 636.805 136.104L637.009 159.809C637.009 160.354 636.737 160.627 636.193 160.627H593.131V197.207H636.193C636.737 197.207 637.009 197.548 637.009 198.229V222.139C637.009 222.684 636.737 222.956 636.193 222.956Z" fill="#332E2E"/>
<path d="M686.34 222.956H662.666C662.122 222.956 661.85 222.616 661.85 221.935L662.258 78.3719C662.258 77.6907 662.53 77.3501 663.075 77.3501H686.544C687.088 77.3501 687.36 77.6907 687.36 78.3719V127.929L720.116 78.1676C720.66 77.6226 721.17 77.3501 721.646 77.3501H745.626C746.238 77.3501 746.374 77.6226 746.034 78.1676L709.911 135.899L750.422 222.139C750.762 222.684 750.422 222.956 749.401 222.956H723.891C723.211 222.956 722.803 222.684 722.667 222.139L694.401 160.627L687.156 172.071V221.935C687.156 222.616 686.884 222.956 686.34 222.956Z" fill="#332E2E"/>
<path d="M809.651 222.956H785.671C785.195 222.956 784.957 222.684 784.957 222.139L785.161 162.67L757.201 78.1676C757.065 77.6226 757.269 77.3501 757.814 77.3501H781.079C781.759 77.3501 782.167 77.6226 782.304 78.1676L797.712 134.469L813.426 78.1676C813.562 77.6226 813.902 77.3501 814.447 77.3501H837.916C838.46 77.3501 838.664 77.6226 838.528 78.1676L810.263 161.853L810.467 222.139C810.467 222.684 810.195 222.956 809.651 222.956Z" fill="#332E2E"/>
<path d="M880.716 222.956H857.043C856.498 222.956 856.226 222.616 856.226 221.935L856.634 78.1676C856.634 77.6226 856.907 77.3501 857.451 77.3501H899.696C907.247 77.3501 914.186 79.1894 920.512 82.8678C926.839 86.5463 931.873 91.485 935.614 97.6839C939.424 103.883 941.329 110.899 941.329 118.733C941.329 123.842 940.546 128.474 938.982 132.629C937.417 136.785 935.58 140.293 933.471 143.154C931.431 146.015 929.56 148.127 927.859 149.489C935.41 157.868 939.186 167.711 939.186 179.019L939.39 221.935C939.39 222.616 939.05 222.956 938.369 222.956H914.696C914.152 222.956 913.88 222.752 913.88 222.343V179.019C913.88 173.978 912.111 169.619 908.573 165.94C905.036 162.262 900.682 160.422 895.512 160.422H881.737L881.532 221.935C881.532 222.616 881.26 222.956 880.716 222.956ZM899.696 102.384H881.737V135.286H899.696C903.982 135.286 907.791 133.685 911.124 130.484C914.526 127.282 916.226 123.365 916.226 118.733C916.226 114.305 914.594 110.49 911.328 107.289C908.063 104.019 904.186 102.384 899.696 102.384Z" fill="#332E2E"/>
<path d="M1001.78 225C994.435 225 987.632 223.093 981.374 219.278C975.115 215.463 970.115 210.354 966.374 203.951C962.7 197.48 960.863 190.429 960.863 182.8L961.272 78.1676C961.272 77.6226 961.544 77.3501 962.088 77.3501H985.557C986.102 77.3501 986.374 77.6226 986.374 78.1676V182.8C986.374 187.5 987.87 191.519 990.863 194.857C993.857 198.127 997.496 199.762 1001.78 199.762C1006.27 199.762 1010.01 198.127 1013.01 194.857C1016 191.519 1017.5 187.5 1017.5 182.8V78.1676C1017.5 77.6226 1017.77 77.3501 1018.31 77.3501H1041.78C1042.33 77.3501 1042.6 77.6226 1042.6 78.1676L1043.01 182.8C1043.01 190.497 1041.17 197.582 1037.5 204.053C1033.75 210.456 1028.79 215.565 1022.6 219.38C1016.41 223.127 1009.47 225 1001.78 225Z" fill="#332E2E"/>
<path d="M1101.21 225C1093.8 225 1086.96 223.093 1080.7 219.278C1074.51 215.463 1069.55 210.388 1065.81 204.053C1062.13 197.65 1060.3 190.634 1060.3 183.004V173.399C1060.3 172.65 1060.64 172.275 1061.32 172.275H1084.79C1085.33 172.275 1085.6 172.65 1085.6 173.399V183.004C1085.6 187.568 1087.13 191.519 1090.19 194.857C1093.26 198.127 1096.93 199.762 1101.21 199.762C1105.57 199.762 1109.28 198.093 1112.34 194.755C1115.4 191.349 1116.93 187.432 1116.93 183.004C1116.93 177.895 1113.6 173.433 1106.93 169.619C1105.84 168.937 1104.41 168.12 1102.64 167.166C1100.94 166.144 1098.9 164.986 1096.52 163.692C1094.14 162.398 1091.83 161.138 1089.58 159.911C1087.34 158.617 1085.16 157.391 1083.05 156.233C1075.43 151.737 1069.75 146.117 1066.01 139.373C1062.34 132.561 1060.5 124.932 1060.5 116.485C1060.5 108.719 1062.41 101.703 1066.21 95.436C1070.02 89.2371 1074.99 84.3324 1081.11 80.7221C1087.3 77.0436 1094 75.2044 1101.21 75.2044C1108.63 75.2044 1115.43 77.0436 1121.62 80.7221C1127.81 84.4687 1132.75 89.4414 1136.42 95.6403C1140.16 101.839 1142.03 108.787 1142.03 116.485V133.651C1142.03 134.196 1141.76 134.469 1141.22 134.469H1117.75C1117.2 134.469 1116.93 134.196 1116.93 133.651L1116.73 116.485C1116.73 111.58 1115.19 107.595 1112.13 104.53C1109.07 101.465 1105.43 99.9319 1101.21 99.9319C1096.93 99.9319 1093.26 101.567 1090.19 104.837C1087.13 108.106 1085.6 111.989 1085.6 116.485C1085.6 121.049 1086.55 124.864 1088.46 127.929C1090.43 130.995 1094 133.924 1099.17 136.717C1099.72 136.989 1100.98 137.67 1102.95 138.76C1104.92 139.85 1107.1 141.076 1109.48 142.439C1111.93 143.733 1114.14 144.925 1116.11 146.015C1118.09 147.037 1119.28 147.65 1119.68 147.854C1126.62 151.737 1132.1 156.505 1136.11 162.159C1140.19 167.813 1142.24 174.762 1142.24 183.004C1142.24 190.974 1140.4 198.127 1136.73 204.462C1132.98 210.797 1128.02 215.804 1121.83 219.482C1115.64 223.161 1108.77 225 1101.21 225Z" fill="#332E2E"/>
<path d="M1187.48 222.956H1163.81C1163.27 222.956 1162.99 222.616 1162.99 221.935L1163.2 78.1676C1163.2 77.6226 1163.54 77.3501 1164.22 77.3501H1187.48C1188.16 77.3501 1188.51 77.6226 1188.51 78.1676L1188.3 135.082H1219.63V78.1676C1219.63 77.6226 1219.9 77.3501 1220.44 77.3501H1243.71C1244.39 77.3501 1244.73 77.6226 1244.73 78.1676L1245.14 221.935C1245.14 222.616 1244.8 222.956 1244.12 222.956H1220.65C1219.97 222.956 1219.63 222.616 1219.63 221.935V160.422H1188.3V221.935C1188.3 222.616 1188.03 222.956 1187.48 222.956Z" fill="#332E2E"/>
</svg>
