<?xml version="1.0" encoding="utf-8"?>
<!-- Generator: Adobe Illustrator 21.1.0, SVG Export Plug-In . SVG Version: 6.00 Build 0)  -->
<svg version="1.1" id="Layer_1" xmlns="http://www.w3.org/2000/svg" xmlns:xlink="http://www.w3.org/1999/xlink" x="0px" y="0px"
	 width="100px" height="100px" viewBox="0 0 100 100" style="enable-background:new 0 0 100 100;" xml:space="preserve">
<style type="text/css">
	.st0{fill:#BDF5D0;}
	.st1{fill:none;stroke:#333333;stroke-width:3.12;stroke-linecap:square;stroke-linejoin:round;}
</style>
<path class="st0" d="M66.5,30.7L66.5,30.7c8.3,0,15,6.7,15,15l0,0c0,8.3-6.7,15-15,15l0,0l0,0c-8.3,0-15-6.7-15-15l0,0l0,0
	C51.5,37.4,58.2,30.7,66.5,30.7z"/>
<g>
	<polygon class="st1" points="32.5,45.7 50,54.2 50,74.6 32.5,66.2 	"/>
	<polygon class="st1" points="50,74.6 67.5,66.2 67.5,45.7 50,54.2 	"/>
	<polygon class="st1" points="50,37.3 32.5,45.7 50,54.2 67.5,45.7 	"/>
	<circle class="st1" cx="50" cy="27" r="4"/>
	<line class="st1" x1="50" y1="31" x2="50" y2="37.3"/>
	<ellipse transform="matrix(0.7472 -0.6646 0.6646 0.7472 -42.2461 34.9471)" class="st1" cx="24.8" cy="73" rx="4" ry="4"/>
	<line class="st1" x1="27.8" y1="70.4" x2="32.5" y2="66.2"/>
	<ellipse transform="matrix(0.6646 -0.7472 0.7472 0.6646 -29.3325 80.6654)" class="st1" cx="75.2" cy="73" rx="4" ry="4"/>
	<line class="st1" x1="72.2" y1="70.4" x2="67.5" y2="66.2"/>
</g>
</svg>
