<?xml version="1.0" encoding="utf-8"?>
<!-- Generator: Adobe Illustrator 21.1.0, SVG Export Plug-In . SVG Version: 6.00 Build 0)  -->
<svg version="1.1" id="Layer_1" xmlns="http://www.w3.org/2000/svg" xmlns:xlink="http://www.w3.org/1999/xlink" x="0px" y="0px"
	 width="100px" height="100px" viewBox="0 0 100 100" style="enable-background:new 0 0 100 100;" xml:space="preserve">
<style type="text/css">
	.st0{fill:#FDE0B4;}
	.st1{fill:none;stroke:#333333;stroke-width:3.12;stroke-linecap:round;stroke-linejoin:round;}
	.st2{fill:none;stroke:#333333;stroke-width:3.12;stroke-linecap:square;stroke-linejoin:round;}
	.st3{fill:#333333;}
</style>
<path class="st0" d="M30.5,53.4L30.5,53.4c8.3,0,15,6.7,15,15l0,0c0,8.3-6.7,15-15,15l0,0c-8.3,0-15-6.7-15-15l0,0
	C15.5,60.2,22.2,53.4,30.5,53.4z"/>
<g>
	<path class="st1" d="M76,38v-5.2c0-2.2-1.7-3.9-3.9-3.9H27.9c-2.2,0-3.9,1.7-3.9,3.9V38 M56.2,73.1H27.9c-2.2,0-3.9-1.7-3.9-3.9V38
		 M76,38v19 M76,39.3H24"/>
	<path class="st2" d="M38.7,32.8V25"/>
	<path class="st2" d="M62.1,32.8V25"/>
	<path class="st3" d="M61.9,51.4L61.9,51.4c-1.4,0-2.6-1.1-2.6-2.6v-0.1c0-1.4,1.1-2.6,2.6-2.6l0,0c1.4,0,2.6,1.1,2.6,2.6v0.1
		C64.5,50.3,63.3,51.4,61.9,51.4z"/>
	<path class="st3" d="M36.6,65.2L36.6,65.2c-1.4,0-2.6-1.1-2.6-2.6v-0.1c0-1.4,1.1-2.6,2.6-2.6h0c1.4,0,2.6,1.1,2.6,2.6v0.1
		C39.2,64.1,38,65.2,36.6,65.2z"/>
	<path class="st3" d="M36.6,51.4L36.6,51.4c-1.4,0-2.6-1.1-2.6-2.6v-0.1c0-1.4,1.1-2.6,2.6-2.6h0c1.4,0,2.6,1.1,2.6,2.6v0.1
		C39.2,50.3,38,51.4,36.6,51.4z"/>
	<path class="st3" d="M49.1,65.2L49.1,65.2c-1.4,0-2.6-1.1-2.6-2.6v-0.1c0-1.4,1.1-2.6,2.6-2.6l0,0c1.4,0,2.6,1.1,2.6,2.6v0.1
		C51.7,64.1,50.5,65.2,49.1,65.2z"/>
	<path class="st3" d="M49.3,51.4L49.3,51.4c-1.4,0-2.6-1.1-2.6-2.6v-0.1c0-1.4,1.1-2.6,2.6-2.6h0c1.4,0,2.6,1.1,2.6,2.6v0.1
		C51.8,50.3,50.7,51.4,49.3,51.4z"/>
	<g>
		<line class="st2" x1="72.2" y1="70.1" x2="69.3" y2="67.4"/>
		<path class="st1" d="M60.4,60.7l4.7,9.9c0.3,0.7,1.3,0.9,1.8,0.3l1.6-4l4.1-2.3c0.5-0.6,0.3-1.5-0.5-1.8l-10.4-3.7
			C60.8,58.9,60,59.8,60.4,60.7z"/>
	</g>
</g>
</svg>
