<?xml version="1.0" encoding="utf-8"?>
<!-- Generator: Adobe Illustrator 21.1.0, SVG Export Plug-In . SVG Version: 6.00 Build 0)  -->
<svg version="1.1" id="Layer_1" xmlns="http://www.w3.org/2000/svg" xmlns:xlink="http://www.w3.org/1999/xlink" x="0px" y="0px"
	 width="100px" height="100px" viewBox="0 0 100 100" style="enable-background:new 0 0 100 100;" xml:space="preserve">
<style type="text/css">
	.st0{fill:#FFB5B6;}
	.st1{fill:none;stroke:#333333;stroke-width:3.12;stroke-linecap:square;stroke-linejoin:round;}
	.st2{fill:none;stroke:#333333;stroke-width:3.12;stroke-linecap:round;stroke-linejoin:round;}
</style>
<path class="st0" d="M69.8,21.3L69.8,21.3c8.3,0,15,6.7,15,15l0,0c0,8.3-6.7,15-15,15l0,0l0,0c-8.3,0-15-6.7-15-15l0,0l0,0
	C54.8,28,61.5,21.3,69.8,21.3z"/>
<g>
	<path class="st1" d="M22.6,66.5c0-0.4,0-0.6,0-0.8c0-11.8,0-23.7,0-35.5c0-3,1.7-4.7,4.7-4.7c12,0,22,0,34,0c3,0,4.7,1.7,4.7,4.7
		c0,7.9,0,15.8,0,23.7c0,3-1.7,4.6-4.6,4.6c-10,0-17.9,0-27.8,0c-0.9,0-1.7,0.3-2.4,0.9c-2.6,2.2-5.3,4.4-7.9,6.6
		C23.1,66.1,22.9,66.2,22.6,66.5z"/>
	<path class="st2" d="M71.6,40.7c2.5,0-0.8,0,1.7,0c2.6,0,4.1,1.4,4.1,4.1c0,10.4,0,20.7,0,31.1c0,0.2,0,0.4,0,0.7
		c-0.2-0.2-0.4-0.3-0.5-0.4c-2.3-1.9-4.6-3.8-6.9-5.8c-0.6-0.5-1.3-0.8-2.1-0.8c-8.7,0-15.4,0-24.1,0c-2.6,0-4-1.5-4-4.1
		c0-0.6,0-1.2,0-1.9"/>
	<line class="st1" x1="31" y1="36.5" x2="55.8" y2="36.5"/>
	<line class="st1" x1="31" y1="44.7" x2="46.6" y2="44.7"/>
</g>
</svg>
