<svg id="Layer_1" data-name="Layer 1" xmlns="http://www.w3.org/2000/svg" viewBox="0 0 100 100"><defs><style>.cls-1{fill:#bdf5d0;}.cls-2{fill:#333;}</style></defs><path class="cls-1" d="M66,51h0A15,15,0,0,1,81,66h0A15,15,0,0,1,66,81h0A15,15,0,0,1,51,66h0A15,15,0,0,1,66,51Z"/><path class="cls-2" d="M22.54,77.5V70.78a28.1,28.1,0,0,1,.1-2.9,10.52,10.52,0,0,1,9.05-9c1.07-.11,2.58-.12,4-.12h3.1V56.48a.86.86,0,0,0-.58-.89,10.84,10.84,0,0,1-3.64-3.17,11.4,11.4,0,0,1-1.94-4.51l0-.17H30.49a4.65,4.65,0,0,1-.71-9.23,22.63,22.63,0,0,1,2.48-.13h.16l.07-.15,1.14-3.75-.45-.1c-.25-.05-.52-.1-.78-.17A5.79,5.79,0,0,1,28,28.85a5.85,5.85,0,0,1,3.32-5.73,15.57,15.57,0,0,1,2-.62h12.4l.5.12.81.19a9.77,9.77,0,0,1,7.36,9.35v6.18h.19l.86,0c.59,0,1.14,0,1.69.13a4.62,4.62,0,0,1,0,9.11,15.62,15.62,0,0,1-1.84.13l-.86,0h-.16l0,.16a11,11,0,0,1-1.52,3.85,10.8,10.8,0,0,1-4.1,3.81.78.78,0,0,0-.49.82v2.3h6.57a10.5,10.5,0,0,1,5.25,1.58l.13.08.11-.1a6.37,6.37,0,0,1,3.22-1.4,6.51,6.51,0,0,1,.88-.06,6.12,6.12,0,0,1,3,.76.74.74,0,0,0,.44.14.77.77,0,0,0,.46-.15,6.25,6.25,0,0,1,7.4,10l-7.61,7.62q-.14.14-.27.3h0l-2.74-2.54V77.5ZM33.06,61.59a7.73,7.73,0,0,0-7.69,7.67V74a2,2,0,0,0,0,.47l.05.14H62.09V72.1a.93.93,0,0,0-.32-.6l-1-1-1-1a6.13,6.13,0,0,1-1.65-3.33,6.65,6.65,0,0,1,.3-3.22l.06-.18-.52-.25-.64-.3a8.84,8.84,0,0,0-3.12-.58h-6l0,.16a4.62,4.62,0,0,1-4.6,3.82h0c-2.29,0-3.83-1.29-4.65-3.84l-.05-.14Zm31.22.1A3.55,3.55,0,0,0,61,64.09a3.24,3.24,0,0,0,.82,3.4c.77.81,1.57,1.6,2.36,2.39l1.26,1.25,1.47,1.48.75.78.27-.23.18-.16,1.48-1.48,3.94-4a3.42,3.42,0,0,0,.13-4.82,3.37,3.37,0,0,0-2.48-1.07,3.42,3.42,0,0,0-2.35.93l-.13.14a9.89,9.89,0,0,0-.69.75,2.85,2.85,0,0,0-.23.26c-.54-.53-1-.92-1.37-1.27A3.11,3.11,0,0,0,64.28,61.69ZM41.63,58.42c0,.89,0,1.78,0,2.67a1.81,1.81,0,0,0,1.8,1.68h.14a1.81,1.81,0,0,0,1.66-1.59c0-.93,0-1.85,0-2.75,0-.45,0-.89,0-1.34v-.2H41.64S41.63,58,41.63,58.42Zm-4-24a.94.94,0,0,0-.67.33,6.69,6.69,0,0,0-1.51,3.61c-.08,1-.06,2.1-.05,3.13,0,.41,0,.81,0,1.22-.07,1.43-.07,2.89,0,4.33.42,4,3.58,6.84,7.86,7h.4a7.66,7.66,0,0,0,7.57-6.4,30.49,30.49,0,0,0,.23-4.57c0-.59,0-1.18,0-1.76,0-.23-.29-.47-.49-.51a9.05,9.05,0,0,1-6.57-5.9.66.66,0,0,0-.68-.51H37.67Zm-7.3,6.83a1.85,1.85,0,0,0-1.61,1.66,1.73,1.73,0,0,0,1.32,1.88,15.29,15.29,0,0,0,2,.13h.42V41.25H30.37Zm24,0v3.66l1.5,0c.22,0,.43,0,.64,0a1.81,1.81,0,0,0,1.61-1.66,1.7,1.7,0,0,0-1.33-1.87,15,15,0,0,0-2-.13ZM46.48,32.1c.23.67.45,1.32.69,2A6.18,6.18,0,0,0,51.29,38l.26.07v-.27c0-.69,0-1.38,0-2.06,0-1.36,0-2.66,0-4A6.85,6.85,0,0,0,45,25.36c-1.51,0-3,0-4.53,0-1.83,0-3.66,0-5.48,0H33.82a2.89,2.89,0,0,0-2.26,1.09,3.12,3.12,0,0,0,2.29,5.13H46.31Z"/><path class="cls-2" d="M43.3,50.58a4.63,4.63,0,0,1-4.45-4.25h2.67a8.57,8.57,0,0,0,.92,1.23,1.7,1.7,0,0,0,1,.34h.13c.86,0,1.39-.48,1.72-1.56h2.78a4.6,4.6,0,0,1-4.61,4.25Z"/></svg>