<?xml version="1.0" encoding="utf-8"?>
<!-- Generator: Adobe Illustrator 21.1.0, SVG Export Plug-In . SVG Version: 6.00 Build 0)  -->
<svg version="1.1" id="Layer_1" xmlns="http://www.w3.org/2000/svg" xmlns:xlink="http://www.w3.org/1999/xlink" x="0px" y="0px"
	 width="100px" height="100px" viewBox="0 0 100 100" style="enable-background:new 0 0 100 100;" xml:space="preserve">
<style type="text/css">
	.st0{fill:#B3DEFF;}
	.st1{fill:none;stroke:#333333;stroke-width:3.12;stroke-linecap:square;stroke-linejoin:round;}
	.st2{fill:none;stroke:#333333;stroke-width:3.12;stroke-linecap:round;stroke-linejoin:round;}
</style>
<path class="st0" d="M27.1,26.5L27.1,26.5c8.3,0,15,6.7,15,15l0,0c0,8.3-6.7,15-15,15l0,0c-8.3,0-15-6.7-15-15l0,0
	C12.1,33.2,18.8,26.5,27.1,26.5z"/>
<g>
	<path class="st1" d="M50,37.8c7,0,14,0,21,0c3.2,0,5.2,2,5.2,5.2c0,9.3,0,18.5,0,27.8c0,3.2-2,5.2-5.2,5.2c-14,0-28.1,0-42.1,0
		c-3.2,0-5.2-2-5.2-5.1c0-9.3,0-18.6,0-27.9c0-3.2,2-5.2,5.2-5.2C35.9,37.8,43,37.8,50,37.8z"/>
	<path class="st1" d="M55.2,55.9L48,51.7c-0.8-0.5-1.8,0.1-1.8,1v8.5c0,0.9,1,1.5,1.8,1c2.4-1.4,4.8-2.8,7.2-4.2
		C55.9,57.5,55.9,56.4,55.2,55.9z"/>
	<polyline class="st2" points="36.9,26.9 48.4,36.8 63.1,23 	"/>
	<circle class="st1" cx="50" cy="56.9" r="12.3"/>
</g>
</svg>
