<svg id="Layer_1" data-name="Layer 1" xmlns="http://www.w3.org/2000/svg" viewBox="0 0 100 100"><defs><style>.cls-1{fill:#fde0b4;}.cls-2{fill:#333;}</style></defs><path class="cls-1" d="M34,51h0A15,15,0,0,1,49,66h0A15,15,0,0,1,34,81h0A15,15,0,0,1,19,66h0A15,15,0,0,1,34,51Z"/><path class="cls-2" d="M30.43,28.66V28A2.15,2.15,0,0,0,30.43,28.66Z"/><path class="cls-2" d="M56.5,28.93a3.76,3.76,0,0,0,0-.75v.75Z"/><path class="cls-2" d="M56.5,68.78v2.63C56.53,70.54,56.51,69.67,56.5,68.78Z"/><path class="cls-2" d="M30.43,27.94V28a.31.31,0,0,1,0-.1Z"/><path class="cls-2" d="M56.5,71.46v0Z"/><path class="cls-2" d="M56.5,27.94h0c0,.08,0,.16,0,.24Z"/><path class="cls-2" d="M32.21,77.25a6.52,6.52,0,0,1-2.93-1.42,5.28,5.28,0,0,1-1.86-4q0-21.84,0-43.69a5.46,5.46,0,0,1,5.43-5.4l10.69,0,10.52,0a5.55,5.55,0,0,1,5.45,5.77c0,1.27,0,2.54,0,3.81V43.67q0,13.8,0,27.6a5.52,5.52,0,0,1-2.62,5.1,7.06,7.06,0,0,1-1.56.63l-.73.25Zm-2.08-9.37v3.47a2.89,2.89,0,0,0,3.16,3.18H54a2.7,2.7,0,0,0,2.76-2.36c0-.15,0-.3,0-.45h0v-.25c0-.84,0-1.64,0-2.45V28.93a4.94,4.94,0,0,0,0-.77v-.47h-.09A2.7,2.7,0,0,0,54,25.49H33a2.76,2.76,0,0,0-2.73,2.2h0v.25a3.13,3.13,0,0,0,0,.75V67.63Z"/><path class="cls-2" d="M66.67,53.74a7.48,7.48,0,0,0,0-10.58l1.81-2a9.78,9.78,0,0,1,3.09,7.11,10,10,0,0,1-3.07,7.4Z"/><path class="cls-2" d="M63,50.28c1.12-1.41,1.12-2.34,0-3.66l1.5-2.21a4.88,4.88,0,0,1,2,4,5,5,0,0,1-2,4.13Z"/><path class="cls-2" d="M42.64,58.75v-2H42.4a12.51,12.51,0,0,1-4.3-1v-3a14.41,14.41,0,0,0,2.39.9,9.61,9.61,0,0,0,2.64.44,3.25,3.25,0,0,0,1.46-.25,1,1,0,0,0,.55-1,1,1,0,0,0-.39-.8,5.24,5.24,0,0,0-1.08-.59c-.49-.21-1.13-.46-2-.76a8.84,8.84,0,0,1-2.14-1.1,3.72,3.72,0,0,1-1.15-1.32,4.26,4.26,0,0,1-.35-1.83,3.23,3.23,0,0,1,1.05-2.59,5.9,5.9,0,0,1,3.28-1.18l.23,0V41.25h1.73v1.44h.23a12.5,12.5,0,0,1,4,.94l-1.08,2.6a10.27,10.27,0,0,0-3.93-.93,2.67,2.67,0,0,0-1.34.25.93.93,0,0,0-.47.83,1,1,0,0,0,.34.77,3.47,3.47,0,0,0,.94.56,18,18,0,0,0,1.75.67,8.26,8.26,0,0,1,3.13,1.75,3.38,3.38,0,0,1,.91,2.45,3.72,3.72,0,0,1-1.07,2.76,5.4,5.4,0,0,1-3.19,1.33l-.22,0v2Z"/></svg>