<svg id="Layer_1" data-name="Layer 1" xmlns="http://www.w3.org/2000/svg" viewBox="0 0 100 100"><defs><style>.cls-1{fill:#fde0b4;}.cls-2{fill:#333;}.cls-3{fill:none;stroke:#333;stroke-miterlimit:10;stroke-width:3.12px;}</style></defs><path class="cls-1" d="M34,19h0A15,15,0,0,1,49,34h0A15,15,0,0,1,34,49h0A15,15,0,0,1,19,34h0A15,15,0,0,1,34,19Z"/><path class="cls-2" d="M39.08,74a5.48,5.48,0,0,1-4.82-8.08,5.75,5.75,0,0,1,3.4-2.75l.27-.09-.82-3.3-1.79-7.19Q32.46,41.13,29.6,29.67c-.13-.49-.29-.62-.79-.64l-4.07,0H20.83V26h11l2.07,8.25,45.26,0v.29l-.35,1.3c-.25,1-.51,1.94-.76,2.91Q75.72,48,73.43,57.3c-.11.43-.31.51-.7.51H39.8l.31,1.29c.19.75.37,1.48.56,2.21,0,.15.06.32.09.49a1.88,1.88,0,0,0,.43,1.11.88.88,0,0,0,.6.15,4.36,4.36,0,0,0,.51,0l.52,0H67.87a5.59,5.59,0,0,1,5.44,3.65,5.49,5.49,0,1,1-10.35,0l.19-.52h-19l.14.4A5.53,5.53,0,0,1,39.09,74Zm29-7.92a2.42,2.42,0,0,0,0,4.84,2.48,2.48,0,0,0,1.75-.75,2.41,2.41,0,0,0,.68-1.72,2.44,2.44,0,0,0-2.41-2.37H68.1Zm-29,0a2.42,2.42,0,1,0,2.45,2.42,2.42,2.42,0,0,0-2.41-2.42h0ZM39,54.69H70.89l4.33-17.33H34.68Z"/><line class="cls-3" x1="55.46" y1="27.81" x2="55.46" y2="20.61"/><line class="cls-3" x1="47.55" y1="28.61" x2="43.95" y2="22.37"/><line class="cls-3" x1="63.36" y1="28.61" x2="66.97" y2="22.37"/></svg>