<svg id="Layer_1" data-name="Layer 1" xmlns="http://www.w3.org/2000/svg" viewBox="0 0 100 100"><defs><style>.cls-1{fill:#b3deff;}.cls-2{fill:#333;}</style></defs><path class="cls-1" d="M66,35h0A15,15,0,0,1,81,50h0A15,15,0,0,1,66,65h0A15,15,0,0,1,51,50h0A15,15,0,0,1,66,35Z"/><path class="cls-2" d="M36.19,79l-.67-.18A10.65,10.65,0,0,1,34,78.38a8.14,8.14,0,0,1-4.94-9.18,8.24,8.24,0,0,1,8-6.55h5.18l0-.34a1.93,1.93,0,0,0,0-.33V60.37c0-1,0-1.93,0-2.9a.65.65,0,0,0-.62-.75A13.26,13.26,0,0,1,30.61,45.53c-.27-1.76-.44-3.57-.61-5.32-.07-.78-.15-1.55-.23-2.32l-.24-2.35c-.15-1.54-.31-3.09-.5-4.63a6.77,6.77,0,0,1,4.7-7.49.75.75,0,0,0,.62-.88c0-.39,0-.78,0-1.19V21h3v7.25h-3V26.49l-.27.1A3.53,3.53,0,0,0,32,30.27c.07.81.16,1.6.25,2.4l.12,1.13c.11,1.05.23,2.1.35,3.15.26,2.33.53,4.73.73,7.11a10.33,10.33,0,0,0,8.92,9.71,9.39,9.39,0,0,0,1.5.12A10.25,10.25,0,0,0,54,45.3c.3-2.18.53-4.4.74-6.55l.3-2.86.18-1.7c.11-1.08.22-2.16.35-3.24a4.18,4.18,0,0,0-.8-3.49,7.12,7.12,0,0,0-.62-.58l-.37-.33-.34-.31v2h-3V21h3v.34c0,.44,0,.88,0,1.32a.68.68,0,0,0,.53.76,6.8,6.8,0,0,1,4.67,7.64c-.56,4.93-1,9.42-1.46,13.73a13.38,13.38,0,0,1-11.55,12l-.17,0v5.76l.28,0a1.33,1.33,0,0,0,.28,0h6.43c1.47,0,3,0,4.42,0a7.15,7.15,0,0,0,7-5.52l0-.18v-.15l-.12-.15-.52-.24a5.59,5.59,0,0,1,2.43-10.67h.35A5.58,5.58,0,0,1,67.5,56.5a1,1,0,0,0-.72.85,10.17,10.17,0,0,1-9.89,8.31c-1.46,0-2.91,0-4.37,0h-7.2v2.51c0,1.16,0,2.36-.09,3.52a8.1,8.1,0,0,1-6.76,7.19l-.3.08-.08,0Zm2.54-13.34c-.78,0-1.42,0-2,.07A5,5,0,0,0,32,71.17,5.17,5.17,0,0,0,36.86,76h.24a5,5,0,0,0,5.07-4.29,34.85,34.85,0,0,0,.06-4c0-.59,0-1.2,0-1.8V65.7H42l-1.64,0ZM65.47,48.74a2.56,2.56,0,0,0-.08,5.12h0A2.56,2.56,0,0,0,68,51.39a2.59,2.59,0,0,0-.72-1.88,2.56,2.56,0,0,0-1.8-.77Z"/></svg>